<?xml version="1.0" ?><svg height="53.767723mm" viewBox="0 0 69.774902 53.767723" width="69.774902mm" xmlns="http://www.w3.org/2000/svg">
    <path d="m 1600.5882,864.0287 c 3.9723,-6.0536 65.5696,-10.0575 65.5696,-10.0575 l 16.4189,-26.6453 65.3049,0.095 10.275,26.6452 67.1057,4.8619 6.0908,150.2429 -236.7499,-5.1479 z" fill="#FFFB86" paint-order="markers stroke fill" transform="translate(-44.39645,-100.22208) matrix(0.26458333,0,0,0.26458333,-374.31296,-115.88751)"/>
    <path d="m 1837.5216,1016.138 c -8.7697,2.9117 -8.0886,3.0399 -62.5862,3.6764 -91.0614,1.0639 -168.9333,-2.3379 -178.9966,-7.8194 -13.997,-7.6251 -15.2102,-16.8567 -11.838,-90.08332 2.6392,-57.32137 3.6213,-67.82567 7.9395,-70.79856 2.7108,-1.86552 7.4159,-3.30695 10.4575,-3.20311 3.0406,0.10577 8.5768,-2.91145 12.3027,-6.70063 8.225,-8.3662 20.0773,-8.59582 28.1395,-0.54504 9.214,9.2001 21.267,4.92705 29.0594,-10.30167 3.4392,-6.71914 5.2811,-12.52047 12.8124,-12.97546 9.806,-0.59241 17.2754,-0.79373 32.9627,-0.36812 31.4324,0.85224 37.7694,3.46772 45.0682,18.60066 4.0828,8.46473 4.2476,8.51668 29.7666,9.38797 32.5175,1.11042 39.374,4.70453 47.6647,24.98619 5.7664,14.10314 6.228,20.04717 5.8786,75.63248 l -0.8929,55.01571 c -0.1469,9.0602 -4.3994,14.3874 -7.7381,15.4959 z m -17.1213,-142.8438 c -1.5996,-10.19211 -4.0737,-8.37808 -16.8842,-8.47226 l -57.9697,-0.42616 c -73.0047,-0.53663 -128.1556,-0.18715 -135.9659,3.79224 -3.6375,1.85392 -4.5794,13.96195 -5.917,65.54557 -1.344,51.77588 -0.9348,61.66258 2.6232,63.40414 9.535,4.66627 85.4123,7.17967 131.686,4.36137 26.3488,-1.60459 50.6823,-2.1037 57.6339,-1.86635 9.0999,0.31062 17.2898,-1.82557 21.7604,-6.03735 6.0007,-5.6542 8.0626,-7.65328 6.1662,-58.89021 -0.657,-17.75029 -0.05,-41.76326 -3.1329,-61.41099 z m -13.4401,109.74761 c -3.8636,3.64034 -14.7233,1.53694 -16.3862,-3.17371 -2.2544,-6.38934 3.9603,-12.78304 11.1788,-11.4997 5.8641,1.04249 9.3254,10.79415 5.2074,14.67341 z m -23.185,-21.13817 c -7.7813,13.43679 -26.5539,28.27796 -40.3795,31.92255 -35.4605,9.34811 -76.4918,-11.34212 -89.5924,-45.17663 -10.1883,-26.31255 11.3137,-63.14576 46.4804,-76.24484 30.5768,-11.38942 66.3173,1.64457 80.8242,23.26502 7.1954,10.72379 8.231,15.16478 8.3873,34.19676 0.1425,17.36915 -1.0312,23.93859 -5.72,32.03714 z m -20.1006,-61.02019 c -17.7615,-31.01685 -72.4478,-22.5136 -86.7091,12.27919 -9.6481,23.53996 0.2659,46.90141 25.8399,60.88849 19.4016,10.61055 46.9752,3.86258 60.5248,-16.15722 9.7918,-14.46782 9.2192,-41.51245 0.3444,-57.01046 z m -3.3651,46.01181 c -8.718,18.26374 -25.8774,28.5232 -42.1542,25.20116 -21.7402,-4.43741 -39.4308,-23.06555 -38.986,-41.05526 0.365,-15.03899 11.3004,-31.61465 24.8062,-37.62015 15.0152,-6.67771 37.7919,-6.49305 46.9732,0.3806 12.7864,9.57295 17.4655,36.11162 9.3608,53.09365 z m -19.3848,-40.27901 c -18.2783,-16.89763 -47.5657,-1.8013 -48.2577,24.87334 -0.4454,16.79456 27.4377,32.78835 41.8224,23.99718 16.3989,-10.02247 19.8781,-36.44218 6.4353,-48.87052 z m -27.1579,36.51896 c -5.5152,5.19614 -14.8667,-5.06915 -14.5827,-16.00818 0.1509,-5.70634 2.4825,-9.65426 7.5353,-12.74197 8.9242,-5.45462 12.1156,-2.94418 7.1991,5.66377 -2.5807,4.51939 -2.8801,8.58947 -1.0211,13.9092 1.4461,4.13608 1.8373,8.26583 0.8694,9.17718 z m -67.1962,-35.46805 c -2.1663,4.97893 -27.9178,3.69682 -32.0544,-1.59596 -1.7933,-2.29525 -2.7185,-9.69664 -2.0556,-16.44759 1.4212,-16.00828 3.6169,-12.63609 19.4737,-13.11003 13.1761,-0.39372 14.0505,-1.25226 15.2046,9.2398 1.3397,12.17889 2.0803,15.82746 -0.5683,21.91378 z m -10.7625,-17.93594 c -0.8844,-2.50817 -3.4868,-4.18195 -7.012,-4.30233 -5.3049,-0.18006 -7.2157,0.53988 -6.2436,6.46504 1.115,6.79905 1.1548,5.84711 7.41,6.62285 3.9467,0.48943 7.8391,-3.13892 5.8466,-8.78553 z m 80.0713,-55.88784 c -18.8762,-0.64451 -25.8429,-1.82665 -28.6501,1.3631 -2.0412,2.31796 -3.2183,4.63071 -2.617,5.13955 0.6014,0.50874 14.1288,2.79453 30.0615,2.63485 23.1753,-0.23221 28.686,-1.08985 27.5574,-4.28806 -1.0545,-2.98797 -7.7104,-4.21301 -26.3518,-4.84944 z" fill="#FF9E48" transform="translate(-44.39645,-100.22208) matrix(0.26458333,0,0,0.26458333,-374.31296,-115.88751)"/>
</svg>